<?xml version="1.0" encoding="UTF-8" standalone="no"?>
<!-- Created with Inkscape (http://www.inkscape.org/) -->

<svg
   width="260mm"
   height="48.800999mm"
   viewBox="0 0 260 48.800999"
   version="1.1"
   id="svg1"
   sodipodi:docname="LOGO1.svg"
   inkscape:version="1.3 (0e150ed6c4, 2023-07-21)"
   xmlns:inkscape="http://www.inkscape.org/namespaces/inkscape"
   xmlns:sodipodi="http://sodipodi.sourceforge.net/DTD/sodipodi-0.dtd"
   xmlns:xlink="http://www.w3.org/1999/xlink"
   xmlns="http://www.w3.org/2000/svg"
   xmlns:svg="http://www.w3.org/2000/svg">
  <sodipodi:namedview
     id="namedview1"
     pagecolor="#ffffff"
     bordercolor="#111111"
     borderopacity="1"
     inkscape:showpageshadow="0"
     inkscape:pageopacity="0"
     inkscape:pagecheckerboard="1"
     inkscape:deskcolor="#d1d1d1"
     inkscape:document-units="mm"
     inkscape:zoom="0.826806"
     inkscape:cx="488.02259"
     inkscape:cy="194.72524"
     inkscape:window-width="1440"
     inkscape:window-height="830"
     inkscape:window-x="-6"
     inkscape:window-y="-6"
     inkscape:window-maximized="1"
     inkscape:current-layer="svg1" />
  <defs
     id="defs1">
    <linearGradient
       id="linearGradient501">
      <stop
         style="stop-color:#ffffff;stop-opacity:1;"
         offset="0.34419709"
         id="stop501" />
      <stop
         style="stop-color:#008080;stop-opacity:1;"
         offset="0.99989998"
         id="stop503" />
      <stop
         style="stop-color:#4b974f;stop-opacity:1;"
         offset="1"
         id="stop502" />
    </linearGradient>
    <linearGradient
       id="linearGradient474">
      <stop
         style="stop-color:#ffaeb2;stop-opacity:1;"
         offset="0"
         id="stop471" />
      <stop
         style="stop-color:#ffbbbb;stop-opacity:1;"
         offset="0.10745851"
         id="stop472" />
      <stop
         style="stop-color:#ec0000;stop-opacity:1;"
         offset="0.88913256"
         id="stop473" />
      <stop
         style="stop-color:#ffc5cd;stop-opacity:1;"
         offset="1"
         id="stop474" />
    </linearGradient>
    <linearGradient
       id="linearGradient114">
      <stop
         style="stop-color:#ffffff;stop-opacity:1;"
         offset="0"
         id="stop114" />
      <stop
         style="stop-color:#ff0000;stop-opacity:1;"
         offset="0.52884942"
         id="stop117" />
      <stop
         style="stop-color:#a30000;stop-opacity:1;"
         offset="0.83171117"
         id="stop116" />
      <stop
         style="stop-color:#df0001;stop-opacity:1;"
         offset="1"
         id="stop115" />
    </linearGradient>
    <radialGradient
       xlink:href="#linearGradient114"
       id="radialGradient133"
       gradientUnits="userSpaceOnUse"
       gradientTransform="matrix(1,0,0,1.0000105,-75.042036,-84.169398)"
       cx="99.068336"
       cy="113.24598"
       fx="99.068336"
       fy="113.24598"
       r="24.400579" />
    <linearGradient
       xlink:href="#linearGradient474"
       id="linearGradient471"
       x1="118.55862"
       y1="100.19747"
       x2="119.21343"
       y2="145.28583"
       gradientUnits="userSpaceOnUse" />
    <radialGradient
       xlink:href="#linearGradient501"
       id="radialGradient502"
       cx="119.3276"
       cy="120.00205"
       fx="119.3276"
       fy="120.00205"
       r="24.330729"
       gradientUnits="userSpaceOnUse"
       gradientTransform="matrix(0.86928014,0.48827681,-0.48973294,0.87187249,-20.559576,-138.49073)" />
    <linearGradient
       xlink:href="#linearGradient474"
       id="linearGradient1"
       gradientUnits="userSpaceOnUse"
       x1="118.55862"
       y1="100.19747"
       x2="119.21343"
       y2="145.28583" />
    <linearGradient
       xlink:href="#linearGradient474"
       id="linearGradient2"
       gradientUnits="userSpaceOnUse"
       x1="118.55862"
       y1="100.19747"
       x2="119.21343"
       y2="145.28583" />
  </defs>
  <g
     id="layer1">
    <path
       style="opacity:1;fill:url(#radialGradient502);fill-opacity:1;stroke:#000000;stroke-width:0;stroke-linecap:square;stroke-linejoin:miter;stroke-miterlimit:8.4;stroke-dasharray:none;stroke-opacity:1;paint-order:normal"
       id="path501"
       d="M 48.731306,24.400652 A 24.330729,24.330729 0 0 1 24.400706,48.73138 24.330729,24.330729 0 0 1 0.06984902,24.400909 24.330729,24.330729 0 0 1 24.400192,0.0699234 24.330729,24.330729 0 0 1 48.731306,24.400138 l -24.330728,5.14e-4 z" />
    <path
       id="path112-0"
       style="opacity:1;fill:url(#radialGradient133);fill-opacity:1;stroke:#0000ff;stroke-width:0;stroke-linecap:butt;stroke-linejoin:miter;stroke-miterlimit:8.4;stroke-dasharray:none;stroke-opacity:1;paint-order:fill markers stroke"
       d="M 24.400579,5.0000013e-7 A 24.400633,24.400633 0 0 0 10.136329,4.6762005 a 29.386934,16.780456 60.613289 0 0 5.66012,24.6910005 29.386934,16.780456 60.613289 0 0 8.69766,11.11302 16.780456,29.386934 29.386711 0 0 8.69766,-11.11302 A 16.780456,29.386934 29.386711 0 0 38.872049,4.7568205 24.400633,24.400633 0 0 0 24.400579,5.0000013e-7 Z M 8.5663985,5.8513205 A 24.400633,24.400633 0 0 0 5.0000084e-7,24.401091 24.400633,24.400633 0 0 0 14.819249,46.712911 c 0.004,-8.1e-4 0.008,-0.002 0.0129,-0.002 0.004,-1.9e-4 0.009,-4.3e-4 0.0145,0 0.0216,0.002 0.0432,0.004 0.0646,0.007 0.002,4.1e-4 0.004,10e-4 0.006,0.002 a 16.780456,29.386934 29.386711 0 0 5.1387,-2.69648 24.295061,14.060277 60.625643 0 1 -9.85521,-11.38432 A 24.295061,14.060277 60.625643 0 1 8.5667285,5.8516005 Z m 32.5882005,0.81959 a 14.060277,24.295061 29.374357 0 1 -2.36627,25.9679205 14.060277,24.295061 29.374357 0 1 -9.85573,11.38432 29.386934,16.780456 60.613289 0 0 5.19917,2.72438 24.400633,24.400633 0 0 0 14.66939,-22.34644 24.400633,24.400633 0 0 0 -7.64656,-17.7301805 z M 24.494109,46.589921 a 14.060277,24.295061 29.374357 0 1 -7.49256,0.93844 c 0.002,0.003 0.005,0.006 0.007,0.008 0.008,0.005 -9.1e-4,3e-4 0.015,10e-4 0.023,0.001 0.0457,0.004 0.0682,0.008 0.0216,0.004 0.0399,0.0161 0.0568,0.0294 0.008,0.006 0.0179,0.009 0.0269,0.0119 0.0166,0.005 0.0335,0.01 0.0496,0.017 0.0124,0.006 0.0253,0.01 0.0387,0.0129 0.0141,0.004 0.0282,0.007 0.0424,0.0109 0.0109,0.004 0.0215,0.009 0.0295,0.0171 0.003,0.003 0.008,0.008 0.0119,0.0114 0.006,0.001 0.0126,0.002 0.0186,0.003 0.0195,2e-4 0.0373,0.006 0.0548,0.0145 0.0131,0.006 0.0265,0.0116 0.0393,0.0186 0.0128,0.006 0.0229,0.0168 0.0341,0.0248 0.003,0.002 0.007,0.005 0.01,0.007 a 24.400633,24.400633 0 0 0 6.89622,1.07745 24.400633,24.400633 0 0 0 7.6724,-1.28622 24.295061,14.060277 60.625643 0 1 -7.57887,-0.92553 z m -9.42319,0.23668 c 0.006,0.006 0.013,0.01 0.0217,0.0114 0.002,2.2e-4 0.003,3e-4 0.005,5.1e-4 a 24.400633,24.400633 0 0 1 -0.0269,-0.0119 z" />
    <g
       id="path448"
       style="fill:url(#linearGradient471);stroke-width:0;stroke-dasharray:none"
       transform="translate(-94.927021,-95.601399)">
      <path
         style="color:#000000;fill:url(#linearGradient1);stroke-width:0;stroke-linecap:square;stroke-miterlimit:8.4;stroke-dasharray:none"
         d="m 105.40855,100.47087 a 24,24 0 0 0 -0.39222,0.29353 29.386934,16.780456 60.613289 0 0 -0.24495,2.17247 29.386934,16.780456 60.613289 0 0 -0.005,2.90164 29.386934,16.780456 60.613289 0 0 0.29456,3.05821 29.386934,16.780456 60.613289 0 0 0.59066,3.16983 29.386934,16.780456 60.613289 0 0 0.87798,3.23494 29.386934,16.780456 60.613289 0 0 1.15187,3.25304 29.386934,16.780456 60.613289 0 0 1.4087,3.22357 29.386934,16.780456 60.613289 0 0 1.64589,3.1471 29.386934,16.780456 60.613289 0 0 1.91875,3.09076 29.386934,16.780456 60.613289 0 0 2.11098,2.91197 29.386934,16.780456 60.613289 0 0 2.2717,2.68769 29.386934,16.780456 60.613289 0 0 2.39623,2.42259 16.780456,29.386934 29.386711 0 0 2.39676,-2.42259 16.780456,29.386934 29.386711 0 0 2.27118,-2.68769 16.780456,29.386934 29.386711 0 0 2.11098,-2.91197 16.780456,29.386934 29.386711 0 0 1.91875,-3.09076 16.780456,29.386934 29.386711 0 0 0.3545,-0.63459 16.780456,29.386934 29.386711 0 0 0.34571,-0.63924 16.780456,29.386934 29.386711 0 0 0.3359,-0.64337 16.780456,29.386934 29.386711 0 0 0.32659,-0.64751 16.780456,29.386934 29.386711 0 0 0.31678,-0.6506 16.780456,29.386934 29.386711 0 0 0.30696,-0.65423 16.780456,29.386934 29.386711 0 0 0.29662,-0.65732 16.780456,29.386934 29.386711 0 0 0.19689,-0.4532 h -0.007 c 0.18215,-0.42533 0.36271,-0.85081 0.53124,-1.27693 0.21408,-0.54132 0.41741,-1.08288 0.60926,-1.62419 0.19185,-0.54131 0.37232,-1.08225 0.54157,-1.62212 0.16925,-0.53987 0.32706,-1.07891 0.47336,-1.61592 0.14629,-0.53702 0.28112,-1.07184 0.40411,-1.60455 0.12298,-0.53272 0.23399,-1.06307 0.33331,-1.59009 0.0993,-0.52702 0.1867,-1.05108 0.262,-1.57096 0.0753,-0.51989 0.13873,-1.03588 0.18965,-1.54719 0.0509,-0.51133 0.0896,-1.01794 0.11576,-1.51929 0.0262,-0.50135 0.0392,-0.99731 0.0403,-1.48725 0.001,-0.48994 -0.01,-0.97396 -0.0341,-1.45107 -0.0244,-0.47712 -0.0619,-0.9474 -0.11214,-1.41025 -0.0142,-0.13088 -0.037,-0.25637 -0.0532,-0.38603 a 24,24 0 0 0 -0.38395,-0.28732 16.780456,29.386934 29.386711 0 1 0.0589,0.44752 16.780456,29.386934 29.386711 0 1 0.0594,0.55449 16.780456,29.386934 29.386711 0 1 0.047,0.56327 16.780456,29.386934 29.386711 0 1 0.0346,0.57206 16.780456,29.386934 29.386711 0 1 0.0222,0.58033 16.780456,29.386934 29.386711 0 1 0.009,0.58807 16.780456,29.386934 29.386711 0 1 -0.003,0.59583 16.780456,29.386934 29.386711 0 1 -0.0155,0.60255 16.780456,29.386934 29.386711 0 1 -0.0284,0.60978 16.780456,29.386934 29.386711 0 1 -0.0403,0.61599 16.780456,29.386934 29.386711 0 1 -0.0532,0.62166 16.780456,29.386934 29.386711 0 1 -0.0661,0.62787 16.780456,29.386934 29.386711 0 1 -0.078,0.63252 16.780456,29.386934 29.386711 0 1 -0.0899,0.63769 16.780456,29.386934 29.386711 0 1 -0.10284,0.64234 16.780456,29.386934 29.386711 0 1 -0.11524,0.64647 16.780456,29.386934 29.386711 0 1 -0.12712,0.64957 16.780456,29.386934 29.386711 0 1 -0.13953,0.65319 16.780456,29.386934 29.386711 0 1 -0.15141,0.65629 16.780456,29.386934 29.386711 0 1 -0.1633,0.65888 16.780456,29.386934 29.386711 0 1 -0.17518,0.66042 16.780456,29.386934 29.386711 0 1 -0.18707,0.66249 16.780456,29.386934 29.386711 0 1 -0.19844,0.66405 16.780456,29.386934 29.386711 0 1 -0.21032,0.66455 16.780456,29.386934 29.386711 0 1 -0.22117,0.66508 16.780456,29.386934 29.386711 0 1 -0.23255,0.66508 16.780456,29.386934 29.386711 0 1 -0.24391,0.66455 16.780456,29.386934 29.386711 0 1 -0.25476,0.66405 16.780456,29.386934 29.386711 0 1 -0.26562,0.66301 16.780456,29.386934 29.386711 0 1 -0.27595,0.66094 16.780456,29.386934 29.386711 0 1 -0.0894,0.20619 h 0.002 c -0.0125,0.0291 -0.0235,0.0582 -0.0362,0.0873 -0.23096,0.52885 -0.47239,1.05662 -0.7245,1.58285 -0.25211,0.52624 -0.5146,1.05085 -0.78755,1.57303 -0.27295,0.52217 -0.55657,1.04189 -0.85008,1.55856 -0.29375,0.513 -0.59582,1.01954 -0.90588,1.51877 -0.31009,0.49923 -0.62811,0.99096 -0.95344,1.47536 -0.32532,0.4844 -0.65785,0.96138 -0.99735,1.42989 -0.33951,0.4685 -0.68612,0.92873 -1.0387,1.38028 -0.35258,0.45156 -0.71132,0.89454 -1.0759,1.32808 -0.36458,0.43354 -0.73504,0.85782 -1.11053,1.27227 -0.37549,0.41448 -0.75622,0.81903 -1.14153,1.21337 -0.38531,0.39435 -0.77487,0.77819 -1.16892,1.15135 -0.39401,-0.37312 -0.7841,-0.75706 -1.16944,-1.15135 -0.38535,-0.39428 -0.76596,-0.79897 -1.14153,-1.21337 -0.37558,-0.41438 -0.74634,-0.83829 -1.11105,-1.27175 -0.3647,-0.43345 -0.7237,-0.87612 -1.07642,-1.32757 -0.35272,-0.45146 -0.69906,-0.91187 -1.03869,-1.38028 -0.33964,-0.46841 -0.67244,-0.94507 -0.99787,-1.42937 -0.32545,-0.48431 -0.64329,-0.97621 -0.95343,-1.47536 -0.31015,-0.49915 -0.61267,-1.00531 -0.90641,-1.51825 v -0.002 c -0.29465,-0.51891 -0.57877,-1.04086 -0.85266,-1.56528 -0.2739,-0.52442 -0.53729,-1.05128 -0.79013,-1.57975 -0.25285,-0.52847 -0.49507,-1.05851 -0.72657,-1.58956 -0.23151,-0.53106 -0.45263,-1.06306 -0.6625,-1.59526 -0.20986,-0.5322 -0.40893,-1.06493 -0.59686,-1.5968 -0.18793,-0.53187 -0.36449,-1.06309 -0.5302,-1.59318 -0.16571,-0.53008 -0.32035,-1.05911 -0.46354,-1.58595 -0.14318,-0.52683 -0.27495,-1.05142 -0.39532,-1.57355 -0.12037,-0.52213 -0.22934,-1.04157 -0.3266,-1.55753 -0.0973,-0.51596 -0.18297,-1.02852 -0.25683,-1.53685 -0.0739,-0.50833 -0.13588,-1.0123 -0.18603,-1.51154 -0.0502,-0.49924 -0.0886,-0.99391 -0.11472,-1.4826 -0.0262,-0.48869 -0.04,-0.97181 -0.0419,-1.44849 -0.002,-0.47668 0.008,-0.94704 0.031,-1.41025 0.0227,-0.46321 0.0578,-0.91908 0.10542,-1.36736 0.0463,-0.43634 0.10553,-0.86486 0.1757,-1.28571 z m -1.92391,1.44643 a 24,24 0 0 0 -1.47278,1.47278 24.295061,14.060277 60.625643 0 0 -0.84077,1.71772 24.295061,14.060277 60.625643 0 0 -0.66353,2.32751 24.295061,14.060277 60.625643 0 0 -0.33125,2.60087 24.295061,14.060277 60.625643 0 0 0.008,2.82257 24.295061,14.060277 60.625643 0 0 0.34674,2.98741 24.295061,14.060277 60.625643 0 0 0.67852,3.09336 24.295061,14.060277 60.625643 0 0 0.99683,3.1383 24.295061,14.060277 60.625643 0 0 1.29605,3.12023 24.295061,14.060277 60.625643 0 0 1.56838,3.04012 24.295061,14.060277 60.625643 0 0 1.67845,2.69648 24.295061,14.060277 60.625643 0 0 1.85828,2.52853 24.295061,14.060277 60.625643 0 0 2.00505,2.31665 24.295061,14.060277 60.625643 0 0 2.11873,2.06447 24.295061,14.060277 60.625643 0 0 2.1947,1.77819 16.780456,29.386934 29.386711 0 1 -2.60087,1.55598 16.780456,29.386934 29.386711 0 1 -2.14923,0.96583 24,24 0 0 0 0.40463,0.1509 c 0.36841,-0.15258 0.73732,-0.31181 1.10691,-0.4806 0.38079,-0.1739 0.76207,-0.35773 1.1436,-0.55397 0.38153,-0.19624 0.7634,-0.4046 1.14515,-0.62838 0.38175,-0.22377 0.7637,-0.46283 1.14515,-0.71934 l 0.41393,-0.27905 -0.40256,-0.29301 c -0.46082,-0.33692 -0.91747,-0.69373 -1.36943,-1.06918 -0.45196,-0.37544 -0.89904,-0.76981 -1.33997,-1.18132 -0.44093,-0.41153 -0.87607,-0.84055 -1.30379,-1.28571 -0.42773,-0.44516 -0.84803,-0.90653 -1.26039,-1.38287 -0.41236,-0.47634 -0.81648,-0.96719 -1.2113,-1.47226 -0.39482,-0.50507 -0.78037,-1.02411 -1.15548,-1.55546 -0.37511,-0.53136 -0.73973,-1.07521 -1.09296,-1.63039 -0.35324,-0.55519 -0.69504,-1.12152 -1.02423,-1.69809 -0.36553,-0.64258 -0.7111,-1.28946 -1.03611,-1.93786 -0.32501,-0.6484 -0.62935,-1.29864 -0.91364,-1.94924 -0.28429,-0.65061 -0.54831,-1.30108 -0.79168,-1.95027 -0.24338,-0.64919 -0.46643,-1.29679 -0.66869,-1.94096 -0.20227,-0.64416 -0.38372,-1.2853 -0.54467,-1.92082 -0.16096,-0.63552 -0.3012,-1.26552 -0.42065,-1.88877 -0.11945,-0.62326 -0.21835,-1.23954 -0.29611,-1.84692 -0.0778,-0.60738 -0.13467,-1.20581 -0.17053,-1.79368 -0.0359,-0.58789 -0.0506,-1.16531 -0.0444,-1.72961 0.006,-0.56432 0.0335,-1.11576 0.0816,-1.65313 0.0481,-0.53737 0.11725,-1.06033 0.20722,-1.56735 0.045,-0.25352 0.0949,-0.503 0.15038,-0.74827 0.0554,-0.24529 0.11605,-0.48631 0.1819,-0.72296 0.0659,-0.23665 0.13716,-0.46902 0.21342,-0.6966 0.0763,-0.22759 0.15776,-0.4506 0.24443,-0.66869 0.0867,-0.2181 0.17838,-0.43157 0.27544,-0.63975 0.0971,-0.20818 0.19953,-0.4109 0.30696,-0.60875 0.10743,-0.19784 0.22017,-0.39065 0.33796,-0.57774 0.11779,-0.18709 0.24032,-0.36876 0.36845,-0.54467 0.12814,-0.1759 0.2615,-0.34627 0.39998,-0.51057 0.0734,-0.0871 0.15212,-0.16794 0.22841,-0.25166 z m 32.82539,0.87695 c 0.0155,0.0229 0.0327,0.0441 0.0481,0.0672 0.11631,0.17457 0.22803,0.35405 0.33486,0.53847 0.10682,0.18439 0.20859,0.37403 0.30593,0.56792 0.0973,0.19389 0.19016,0.39232 0.27802,0.59531 0.0879,0.20299 0.1707,0.41047 0.24908,0.62219 0.0784,0.21171 0.15226,0.42743 0.22117,0.6475 0.1378,0.44015 0.25667,0.89655 0.35657,1.36788 0.0999,0.47133 0.18087,0.95774 0.24288,1.45727 0.062,0.49954 0.10506,1.01262 0.12919,1.53738 0.0241,0.52475 0.0292,1.06117 0.0155,1.60817 -0.0137,0.54699 -0.0466,1.10444 -0.0982,1.6707 -0.0516,0.56625 -0.12167,1.14082 -0.21084,1.72289 -0.0892,0.58207 -0.19702,1.17152 -0.3235,1.7663 -0.12648,0.59478 -0.27157,1.195 -0.43511,1.79937 -0.098,0.36224 -0.21638,0.72817 -0.32763,1.09296 h 5.1e-4 c -0.0738,0.24247 -0.13775,0.48321 -0.21755,0.72657 -0.20033,0.61085 -0.41893,1.22444 -0.65578,1.83865 -0.23685,0.61421 -0.49169,1.22886 -0.76481,1.84329 -0.27311,0.61445 -0.56421,1.22861 -0.87333,1.8402 -0.30912,0.61158 -0.63647,1.22065 -0.98134,1.82625 -0.32921,0.57659 -0.67093,1.1434 -1.02422,1.6986 -0.3533,0.55519 -0.71827,1.09903 -1.09348,1.63039 -0.3752,0.53136 -0.76055,1.05038 -1.15548,1.55546 -0.39493,0.50507 -0.79934,0.99593 -1.21181,1.47227 -0.41248,0.47634 -0.83307,0.93771 -1.26091,1.38286 -0.42783,0.44515 -0.86278,0.87419 -1.30379,1.28571 -0.44102,0.41152 -0.88795,0.80589 -1.33997,1.18132 -0.45203,0.37544 -0.90911,0.73228 -1.36995,1.06919 l -0.40256,0.293 0.41445,0.27905 c 0.4396,0.29579 0.8797,0.57565 1.32033,0.83923 0.44063,0.26358 0.88155,0.51093 1.32189,0.74156 0.44031,0.23063 0.88006,0.44435 1.31878,0.6413 0.13064,0.0587 0.26025,0.10509 0.39067,0.16071 a 24,24 0 0 0 0.50746,-0.18913 29.386934,16.780456 60.613289 0 1 -2.05465,-0.92294 29.386934,16.780456 60.613289 0 1 -2.60915,-1.56115 14.060277,24.295061 29.374357 0 0 2.19522,-1.77767 14.060277,24.295061 29.374357 0 0 2.11822,-2.06499 14.060277,24.295061 29.374357 0 0 2.00556,-2.31665 14.060277,24.295061 29.374357 0 0 1.85828,-2.52853 14.060277,24.295061 29.374357 0 0 1.67846,-2.69648 14.060277,24.295061 29.374357 0 0 0.47697,-0.86041 14.060277,24.295061 29.374357 0 0 0.45578,-0.87075 14.060277,24.295061 29.374357 0 0 0.4346,-0.87953 14.060277,24.295061 29.374357 0 0 0.41238,-0.88677 14.060277,24.295061 29.374357 0 0 0.38964,-0.89245 14.060277,24.295061 29.374357 0 0 0.36639,-0.8971 14.060277,24.295061 29.374357 0 0 0.34158,-0.90021 14.060277,24.295061 29.374357 0 0 0.31781,-0.90123 14.060277,24.295061 29.374357 0 0 0.29197,-0.90176 14.060277,24.295061 29.374357 0 0 0.0775,-0.26148 h -5.2e-4 a 14.060277,24.295061 29.374357 0 0 0.1881,-0.63407 14.060277,24.295061 29.374357 0 0 0.24081,-0.8971 14.060277,24.295061 29.374357 0 0 0.21394,-0.89245 14.060277,24.295061 29.374357 0 0 0.18707,-0.88677 14.060277,24.295061 29.374357 0 0 0.1602,-0.87902 14.060277,24.295061 29.374357 0 0 0.13281,-0.87075 14.060277,24.295061 29.374357 0 0 0.1049,-0.85989 14.060277,24.295061 29.374357 0 0 0.0775,-0.84853 14.060277,24.295061 29.374357 0 0 0.0491,-0.83561 14.060277,24.295061 29.374357 0 0 0.0217,-0.82113 14.060277,24.295061 29.374357 0 0 -0.007,-0.80564 14.060277,24.295061 29.374357 0 0 -0.0346,-0.78858 14.060277,24.295061 29.374357 0 0 -0.0625,-0.76998 14.060277,24.295061 29.374357 0 0 -0.0904,-0.75034 14.060277,24.295061 29.374357 0 0 -0.11782,-0.72916 14.060277,24.295061 29.374357 0 0 -0.14573,-0.70745 14.060277,24.295061 29.374357 0 0 -0.17312,-0.68471 14.060277,24.295061 29.374357 0 0 -0.19998,-0.65991 14.060277,24.295061 29.374357 0 0 -0.22635,-0.63459 14.060277,24.295061 29.374357 0 0 -0.2527,-0.60771 14.060277,24.295061 29.374357 0 0 -0.24701,-0.51418 24,24 0 0 0 -0.9803,-0.9803 z m -16.84032,39.36504 -0.13694,0.0584 c -0.35198,0.14983 -0.7012,0.28563 -1.04748,0.40669 -0.34629,0.12106 -0.68975,0.22753 -1.0294,0.31988 -0.33965,0.0923 -0.67561,0.17042 -1.00769,0.2341 -0.33207,0.0637 -0.65984,0.11323 -0.9834,0.14831 -0.32356,0.0351 -0.64295,0.0555 -0.95705,0.062 -0.3141,0.007 -0.62338,-8.3e-4 -0.92707,-0.0227 -0.3037,-0.022 -0.60166,-0.0582 -0.89401,-0.10852 -0.13616,-0.0235 -0.26642,-0.0608 -0.39997,-0.0904 a 24,24 0 0 0 0.52865,0.1974 24,24 0 0 0 1.5353,0.33383 14.060277,24.295061 29.374357 0 0 1.15084,-0.0238 14.060277,24.295061 29.374357 0 0 2.05052,-0.39429 14.060277,24.295061 29.374357 0 0 2.11873,-0.74104 24.295061,14.060277 60.625643 0 0 2.01332,0.7059 24.295061,14.060277 60.625643 0 0 1.95285,0.39274 24.295061,14.060277 60.625643 0 0 1.22318,0.0481 24,24 0 0 0 1.47847,-0.32143 24,24 0 0 0 0.45268,-0.16898 v -5.2e-4 c -0.15024,0.0292 -0.29824,0.0642 -0.45165,0.0858 -0.28135,0.0395 -0.56749,0.0663 -0.85886,0.0801 -0.29137,0.0138 -0.58776,0.0147 -0.88832,0.003 -0.30056,-0.012 -0.60575,-0.0366 -0.91468,-0.0744 -0.30892,-0.0378 -0.62146,-0.0883 -0.93792,-0.15193 -0.31647,-0.0636 -0.63646,-0.14052 -0.95963,-0.22996 -0.32318,-0.0894 -0.6497,-0.19165 -0.97876,-0.30696 -0.32905,-0.11531 -0.66065,-0.24378 -0.99477,-0.38499 z"
         id="path469" />
      <path
         style="color:#000000;fill:url(#linearGradient2);stroke-width:0;stroke-linecap:square;stroke-miterlimit:8.4;stroke-dasharray:none"
         d="m 105.37891,100.36914 -0.0293,0.0215 c -0.13228,0.0969 -0.26425,0.19533 -0.39453,0.29492 l -0.0312,0.0234 -0.006,0.0391 c -0.11427,0.70342 -0.19642,1.43132 -0.24609,2.18164 v 0.002 c -0.052,0.94031 -0.0545,1.91283 -0.006,2.91211 0.0485,0.9993 0.14858,2.02261 0.29687,3.06641 0.14843,1.04375 0.3458,2.10663 0.5918,3.17968 0.24611,1.073 0.53888,2.15552 0.8789,3.24219 0.33995,1.08672 0.72541,2.17516 1.1543,3.25977 0.42873,1.08464 0.90068,2.16371 1.41211,3.23047 0.51158,1.06684 1.06162,2.11894 1.64844,3.15234 0.60548,1.05728 1.24887,2.09238 1.92383,3.09766 0.67482,1.00538 1.38124,1.97997 2.11523,2.91796 0.73419,0.93788 1.49329,1.8373 2.27539,2.69336 0.78189,0.85612 1.58447,1.66651 2.40234,2.42774 l 0.0684,0.0644 0.0684,-0.0644 c 0.81806,-0.76121 1.62028,-1.57159 2.40235,-2.42774 0.78193,-0.85608 1.54138,-1.7555 2.27539,-2.69336 0.73399,-0.93799 1.4404,-1.91258 2.11523,-2.91796 0.67496,-1.00528 1.31835,-2.04038 1.92383,-3.09766 0.11989,-0.21111 0.23858,-0.42396 0.35547,-0.63672 0.11699,-0.21272 0.23178,-0.42442 0.3457,-0.63867 0.11375,-0.21417 0.22533,-0.43092 0.33594,-0.64649 0.11068,-0.21562 0.22066,-0.43155 0.32812,-0.64843 0.10744,-0.21672 0.21225,-0.43255 0.31641,-0.65039 0.10419,-0.21801 0.20775,-0.43726 0.30859,-0.65625 0.10077,-0.21911 0.19952,-0.43824 0.29688,-0.65821 0.0666,-0.15119 0.13232,-0.30354 0.19726,-0.45507 l 0.0605,-0.13868 h -0.01 c 0.16207,-0.37947 0.32384,-0.75941 0.47461,-1.14062 0.2145,-0.5424 0.41906,-1.08447 0.61132,-1.62695 0.19226,-0.54247 0.3714,-1.08592 0.54102,-1.62696 0.16963,-0.54107 0.32798,-1.08091 0.47461,-1.61914 0.14662,-0.53823 0.28296,-1.0734 0.40625,-1.60742 0.12328,-0.53404 0.23441,-1.06736 0.33398,-1.5957 0.0996,-0.52838 0.18622,-1.05291 0.26172,-1.57422 0.0755,-0.5213 0.14033,-1.03793 0.19141,-1.55078 0.0511,-0.51284 0.089,-1.02242 0.11523,-1.52539 0.0263,-0.50306 0.0399,-1.00063 0.041,-1.49219 0.001,-0.49157 -0.011,-0.9761 -0.0352,-1.45508 -0.0245,-0.47899 -0.0609,-0.95125 -0.11133,-1.41602 -0.0147,-0.13547 -0.0389,-0.26258 -0.0547,-0.38867 l -0.004,-0.041 -0.0332,-0.0254 c -0.12756,-0.0975 -0.25725,-0.19418 -0.38672,-0.28907 l -0.19141,-0.14062 0.0332,0.23633 c 0.0209,0.14744 0.0404,0.29575 0.0586,0.44531 0.0218,0.18251 0.0429,0.36523 0.0606,0.55078 0.0177,0.18551 0.0333,0.37406 0.0469,0.5625 0.0136,0.18852 0.0238,0.37703 0.0332,0.56836 0.009,0.19135 0.0181,0.38408 0.0234,0.57813 0.005,0.19401 0.007,0.38935 0.008,0.58593 0.001,0.19667 0.001,0.39462 -0.002,0.59375 -0.003,0.19899 -0.008,0.40024 -0.0156,0.60157 -0.007,0.20148 -0.0178,0.40373 -0.0293,0.60742 -0.0113,0.20362 -0.0236,0.40756 -0.0391,0.61328 -0.0156,0.2056 -0.0349,0.41354 -0.0547,0.62109 -0.0199,0.20775 -0.0404,0.41543 -0.0644,0.625 -0.0239,0.20938 -0.0501,0.41979 -0.0781,0.63086 -0.0278,0.21117 -0.0579,0.42397 -0.0898,0.63672 -0.0321,0.2128 -0.0673,0.42638 -0.10352,0.64063 -0.0363,0.21425 -0.0729,0.42896 -0.11328,0.64453 -0.0402,0.21537 -0.0827,0.42993 -0.12695,0.64648 -0.0444,0.21666 -0.0922,0.43465 -0.14063,0.65234 -0.0483,0.21777 -0.0981,0.43563 -0.15039,0.6543 -0.0523,0.21871 -0.10583,0.43872 -0.16211,0.6582 -0.0563,0.2193 -0.11557,0.43827 -0.17578,0.65821 -0.0603,0.22006 -0.12139,0.44154 -0.18555,0.66211 -0.0641,0.22066 -0.13129,0.44108 -0.19922,0.66211 -0.068,0.2209 -0.13713,0.44097 -0.20898,0.66211 -0.0717,0.22115 -0.14526,0.4428 -0.2207,0.66406 -0.0755,0.22123 -0.15322,0.44287 -0.23242,0.66406 -0.0793,0.22113 -0.16118,0.44116 -0.24415,0.66211 -0.0829,0.22104 -0.16735,0.44334 -0.2539,0.66406 -0.0866,0.22077 -0.17354,0.43984 -0.26367,0.66016 -0.09,0.22015 -0.18185,0.44059 -0.27539,0.66016 -0.0296,0.0686 -0.0599,0.13652 -0.0898,0.20507 l -0.0605,0.14063 c -0.22342,0.50994 -0.45414,1.01986 -0.69727,1.52734 -0.25161,0.5252 -0.51275,1.04918 -0.78516,1.57031 -0.27239,0.52111 -0.55666,1.03901 -0.84961,1.55469 h 0.002 c -0.29317,0.51198 -0.59488,1.01742 -0.9043,1.51563 -0.30945,0.4982 -0.62844,0.98922 -0.95312,1.47265 -0.32468,0.48344 -0.65536,0.95827 -0.99414,1.42578 -0.3388,0.46751 -0.68525,0.92828 -1.03711,1.37891 -0.35186,0.45063 -0.71044,0.89163 -1.07422,1.32422 -0.36379,0.4326 -0.73276,0.85599 -1.10742,1.26953 -0.37465,0.41355 -0.75425,0.8175 -1.13868,1.21094 -0.36204,0.37054 -0.72795,0.73029 -1.09765,1.08203 -0.36975,-0.35174 -0.7356,-0.71157 -1.09766,-1.08203 -0.38445,-0.39336 -0.76392,-0.79745 -1.13867,-1.21094 -0.37478,-0.4135 -0.74548,-0.83704 -1.10938,-1.26953 -0.36392,-0.43252 -0.72224,-0.87372 -1.07421,-1.32422 -0.35197,-0.45049 -0.69622,-0.90949 -1.03516,-1.37695 -0.33894,-0.46744 -0.67133,-0.94442 -0.99609,-1.42774 -0.32478,-0.48331 -0.64166,-0.97255 -0.95118,-1.4707 -0.30478,-0.49051 -0.60369,-0.98839 -0.89257,-1.49219 -2.8e-4,-4.8e-4 2.7e-4,-10e-4 0,-0.002 l -0.0137,-0.0215 v -0.002 c -0.29406,-0.51787 -0.57625,-1.0391 -0.84961,-1.5625 -0.27335,-0.52337 -0.53672,-1.04875 -0.78906,-1.57617 -0.25234,-0.52742 -0.49358,-1.05597 -0.72461,-1.58594 -0.23105,-0.53001 -0.45269,-1.06074 -0.66211,-1.59179 -0.20942,-0.53109 -0.40817,-1.06302 -0.5957,-1.59375 -0.18752,-0.5307 -0.36395,-1.06091 -0.5293,-1.58985 -0.16534,-0.5289 -0.31808,-1.05642 -0.46093,-1.58203 -0.14285,-0.5256 -0.27446,-1.04946 -0.39454,-1.57031 -0.12007,-0.52086 -0.22916,-1.03813 -0.32617,-1.55274 -0.097,-0.51461 -0.1822,-1.02629 -0.25586,-1.5332 -0.0737,-0.50689 -0.13554,-1.01007 -0.18554,-1.50781 -0.05,-0.49775 -0.0892,-0.99145 -0.11524,-1.47852 -0.0261,-0.48704 -0.0391,-0.96834 -0.041,-1.44336 -0.002,-0.475 0.008,-0.943 0.0312,-1.40429 0.0226,-0.46138 0.0561,-0.915 0.10351,-1.36133 0.0461,-0.43427 0.10592,-0.86031 0.17578,-1.2793 l 0.0176,-0.11133 z m -0.10157,0.32227 c -0.0542,0.34761 -0.10458,0.69658 -0.14257,1.05468 -0.0478,0.45023 -0.0846,0.90801 -0.10743,1.37305 -0.0231,0.46513 -0.0313,0.93766 -0.0293,1.41602 0.002,0.47834 0.0147,0.96279 0.041,1.45312 0.0262,0.49032 0.0649,0.9856 0.11524,1.48633 0.0503,0.50073 0.11144,1.00781 0.18554,1.51758 0.0741,0.50975 0.16026,1.02371 0.25782,1.54101 0.0975,0.51732 0.20746,1.03715 0.32812,1.56055 0.12067,0.52341 0.25297,1.05007 0.39649,1.57813 0.14352,0.52807 0.29876,1.05663 0.46484,1.58789 0.16607,0.53123 0.34291,1.06461 0.53125,1.59765 0.18833,0.53301 0.38736,1.0663 0.59766,1.59961 0.21032,0.53334 0.43209,1.06751 0.66406,1.59961 0.23197,0.53213 0.47516,1.06227 0.72851,1.5918 0.25335,0.52952 0.51657,1.05852 0.79102,1.58398 0.27066,0.51824 0.55089,1.03398 0.8418,1.54688 l 0.0117,0.0195 c 2.8e-4,5e-4 -2.9e-4,0.001 0,0.002 l 0.002,0.002 c 0.29435,0.51402 0.59744,1.02136 0.9082,1.52149 0.31076,0.50015 0.62896,0.9932 0.95508,1.47851 0.32609,0.48529 0.65966,0.96227 1,1.43164 0.34031,0.46936 0.68754,0.93039 1.04102,1.38282 0.35346,0.4524 0.71264,0.8957 1.07812,1.33008 0.36553,0.43443 0.7369,0.86013 1.11328,1.27539 0.37639,0.4153 0.75828,0.81964 1.14453,1.21484 0.38624,0.39521 0.77693,0.78029 1.17188,1.1543 l 0.0684,0.0664 0.0684,-0.0664 c 0.39501,-0.37408 0.78568,-0.75905 1.17187,-1.1543 0.38619,-0.39524 0.7682,-0.79943 1.14453,-1.21484 0.37632,-0.41537 0.74791,-0.84091 1.11328,-1.27539 0.36538,-0.43449 0.72482,-0.87759 1.07813,-1.33008 0.3533,-0.45247 0.70079,-0.91528 1.04101,-1.38477 0.34022,-0.4695 0.67209,-0.94628 0.99805,-1.43164 0.32598,-0.48536 0.6463,-0.97825 0.95703,-1.47851 0.3107,-0.50026 0.61192,-1.00747 0.90625,-1.52149 0.29407,-0.51765 0.58001,-1.03927 0.85352,-1.5625 0.27349,-0.52322 0.53645,-1.04889 0.78906,-1.57617 0.25262,-0.52729 0.49319,-1.05603 0.72461,-1.58594 0.014,-0.0321 0.0257,-0.0615 0.0371,-0.0879 l 0.0605,-0.13867 h -0.002 c 0.01,-0.0227 0.0195,-0.0456 0.0293,-0.0684 0.0939,-0.22045 0.18498,-0.44106 0.27539,-0.66211 0.0905,-0.22122 0.18065,-0.44238 0.26758,-0.66406 0.0869,-0.22164 0.17063,-0.44405 0.2539,-0.66602 0.0833,-0.22187 0.16451,-0.44394 0.24415,-0.66601 0.0795,-0.22213 0.15856,-0.44383 0.23437,-0.66602 0.0758,-0.22221 0.14871,-0.44389 0.2207,-0.66601 0.0722,-0.22211 0.14259,-0.44413 0.21094,-0.66602 0.0682,-0.22202 0.13486,-0.44435 0.19922,-0.66602 0.0644,-0.22156 0.12695,-0.44297 0.1875,-0.66406 0.0605,-0.22095 0.11922,-0.44177 0.17578,-0.66211 0.0565,-0.22052 0.11149,-0.44039 0.16406,-0.66015 0.0526,-0.21974 0.10181,-0.43936 0.15039,-0.65821 0.0486,-0.21877 0.096,-0.43654 0.14063,-0.65429 0.0444,-0.21702 0.0866,-0.43452 0.12695,-0.65039 v -0.002 c 0.0404,-0.21605 0.0789,-0.4317 0.11524,-0.64648 0.0364,-0.2154 0.0712,-0.43056 0.10351,-0.64453 0.0321,-0.21393 0.0619,-0.42826 0.0898,-0.64063 0.0281,-0.21227 0.0541,-0.42221 0.0781,-0.63281 0.0242,-0.2108 0.0464,-0.42186 0.0664,-0.63086 0.0199,-0.20881 0.039,-0.41616 0.0547,-0.62305 0.0156,-0.207 0.0277,-0.41224 0.0391,-0.61718 0.0116,-0.20501 0.0219,-0.41046 0.0293,-0.61329 0.007,-0.20267 0.0125,-0.40314 0.0156,-0.60351 0.003,-0.20052 0.005,-0.39957 0.004,-0.59766 -9.2e-4,-0.198 -0.005,-0.39438 -0.01,-0.58984 v -0.002 c -0.005,-0.19551 -0.0139,-0.3892 -0.0234,-0.58204 -0.009,-0.19282 -0.0195,-0.38417 -0.0332,-0.57421 -0.0136,-0.18997 -0.0291,-0.37738 -0.0469,-0.56446 -0.0178,-0.18712 -0.0386,-0.37448 -0.0605,-0.55859 -0.009,-0.0715 -0.018,-0.14187 -0.0273,-0.21289 0.0533,0.0399 0.10719,0.0788 0.16016,0.11914 0.0159,0.11753 0.0346,0.23094 0.0469,0.34375 0.05,0.46093 0.087,0.92905 0.11133,1.4043 0.024,0.47523 0.0342,0.957 0.0332,1.44531 -0.001,0.48832 -0.013,0.98278 -0.0391,1.48242 -0.0261,0.49973 -0.0645,1.00385 -0.11523,1.51367 -0.0508,0.50976 -0.11436,1.02449 -0.18945,1.54297 -0.0751,0.51845 -0.16268,1.0427 -0.26172,1.56836 -0.0991,0.52569 -0.20936,1.05454 -0.33203,1.58594 -0.12269,0.53139 -0.25639,1.0638 -0.40235,1.59961 -0.14596,0.53578 -0.30378,1.07461 -0.47265,1.61328 -0.16889,0.5387 -0.34958,1.07704 -0.54102,1.61719 -0.19143,0.54013 -0.39377,1.08084 -0.60742,1.62109 -0.16792,0.42457 -0.34919,0.85026 -0.53125,1.27539 l -0.0586,0.13867 h 0.006 c -0.0452,0.10448 -0.0908,0.20819 -0.13671,0.3125 -0.097,0.21909 -0.19456,0.43801 -0.29493,0.65625 -0.10044,0.21813 -0.20286,0.4352 -0.30664,0.65235 -0.10375,0.21699 -0.20939,0.43451 -0.3164,0.65039 -0.10705,0.21603 -0.21593,0.4317 -0.32618,0.64648 -0.11017,0.21472 -0.22067,0.42729 -0.33398,0.64063 -0.11348,0.21341 -0.22916,0.42677 -0.3457,0.63867 -0.11644,0.21193 -0.23409,0.42252 -0.35352,0.63281 -0.60313,1.05318 -1.24372,2.08464 -1.91601,3.08594 -0.67217,1.00141 -1.37453,1.97215 -2.10547,2.90625 -0.73096,0.93396 -1.48917,1.82941 -2.26758,2.68164 -0.7564,0.82804 -1.53234,1.60908 -2.32227,2.34765 -0.78976,-0.7386 -1.56603,-1.51963 -2.32226,-2.34765 -0.77858,-0.85221 -1.53644,-1.74766 -2.26758,-2.68164 -0.73094,-0.9341 -1.43331,-1.90484 -2.10547,-2.90625 -0.67229,-1.0013 -1.31288,-2.03276 -1.91601,-3.08594 -0.58455,-1.02939 -1.13301,-2.07797 -1.64258,-3.14062 -0.50942,-1.06257 -0.97733,-2.13661 -1.4043,-3.2168 -0.42713,-1.08015 -0.81194,-2.16417 -1.15039,-3.2461 -0.33852,-1.08187 -0.63009,-2.1588 -0.875,-3.22656 -0.24479,-1.06781 -0.44224,-2.12416 -0.58984,-3.16211 -0.14747,-1.03798 -0.24481,-2.05604 -0.29297,-3.04883 -0.0483,-0.99276 -0.0477,-1.95767 0.004,-2.89062 0.0484,-0.73157 0.13006,-1.43928 0.24024,-2.125 0.0554,-0.0422 0.11028,-0.0853 0.16601,-0.12695 z m -1.83203,1.125 -0.0273,0.0273 c -0.002,0.002 -0.005,0.004 -0.008,0.006 v 0.002 c -0.005,0.006 -0.0121,0.0117 -0.0176,0.0176 -0.50462,0.46399 -0.99183,0.94781 -1.45508,1.45313 l -0.006,0.008 -0.006,0.008 c -0.32085,0.53552 -0.60364,1.11409 -0.84765,1.73242 v 0.002 c -0.2775,0.73084 -0.50058,1.51439 -0.66797,2.34375 -0.16744,0.82943 -0.27962,1.70173 -0.33399,2.61328 -0.0543,0.91163 -0.0518,1.86015 0.008,2.83593 0.0596,0.97563 0.17557,1.97751 0.34766,2.99805 0.17205,1.02055 0.40056,2.0562 0.68164,3.10156 0.28102,1.04552 0.61552,2.09677 1,3.14649 0.38466,1.04966 0.81838,2.09582 1.29883,3.1289 0.48026,1.03304 1.00573,2.05082 1.57227,3.04688 0.52775,0.92435 1.08894,1.82743 1.68164,2.70312 0.59288,0.87587 1.21554,1.72295 1.86328,2.53516 0.64751,0.8122 1.31842,1.58756 2.00976,2.32227 0.69158,0.73452 1.40139,1.42786 2.125,2.07226 0.68548,0.61087 1.38442,1.16918 2.08789,1.68945 -0.82357,0.54823 -1.64916,1.04889 -2.47265,1.48047 -0.71755,0.3671 -1.43075,0.68742 -2.13867,0.96094 l -0.24219,0.0937 0.24219,0.0937 c 0.13498,0.0517 0.27035,0.1011 0.40625,0.15039 l 0.0352,0.0137 0.0371,-0.0156 c 0.36933,-0.15296 0.73853,-0.31111 1.10938,-0.48047 0.38206,-0.17448 0.76539,-0.35962 1.14843,-0.55664 0.383,-0.197 0.76691,-0.40606 1.15039,-0.63086 0.38345,-0.22477 0.76717,-0.46495 1.15039,-0.72266 l 0.53125,-0.35937 -0.51757,-0.37695 c -0.45908,-0.33565 -0.91284,-0.69026 -1.36328,-1.06446 -0.45042,-0.37416 -0.89636,-0.76748 -1.33594,-1.17773 -0.43958,-0.41027 -0.8743,-0.83738 -1.30078,-1.28125 -0.42649,-0.44387 -0.8446,-0.90579 -1.25586,-1.38086 -0.41127,-0.47508 -0.8152,-0.96305 -1.20899,-1.4668 -0.3938,-0.50376 -0.77816,-1.02269 -1.15234,-1.55273 -0.37418,-0.53004 -0.73747,-1.07116 -1.08984,-1.625 -0.35239,-0.55386 -0.6931,-1.12014 -1.02149,-1.69532 -0.36466,-0.64105 -0.71093,-1.28676 -1.03516,-1.93359 -0.32421,-0.64681 -0.62656,-1.29435 -0.91015,-1.94336 -0.2836,-0.64901 -0.54829,-1.29782 -0.79102,-1.94531 -0.24275,-0.64753 -0.46431,-1.29315 -0.66601,-1.93555 -0.20171,-0.64237 -0.38248,-1.28232 -0.54297,-1.91601 -0.16049,-0.63368 -0.30085,-1.26154 -0.41992,-1.88282 -0.11908,-0.62131 -0.21744,-1.23656 -0.29493,-1.84179 -0.0775,-0.60526 -0.1342,-1.20154 -0.16992,-1.78711 -0.0358,-0.58557 -0.0511,-1.15889 -0.0449,-1.7207 0.006,-0.56177 0.0342,-1.1118 0.082,-1.64649 0.0479,-0.53463 0.11759,-1.05454 0.20703,-1.55859 0.0448,-0.25211 0.0933,-0.50052 0.14844,-0.74414 0.055,-0.24373 0.11624,-0.48177 0.18164,-0.7168 0.0654,-0.235 0.13523,-0.46743 0.21094,-0.69336 0.0757,-0.22592 0.15621,-0.44578 0.24219,-0.66211 0.086,-0.21643 0.17725,-0.42846 0.27343,-0.63476 0.0962,-0.20631 0.19821,-0.40742 0.30469,-0.60352 0.10643,-0.196 0.21737,-0.38704 0.33399,-0.57227 0.11668,-0.18533 0.23853,-0.36511 0.36523,-0.53906 0.12679,-0.17405 0.25762,-0.34146 0.39453,-0.5039 0.0686,-0.0814 0.14485,-0.16115 0.2207,-0.24415 0.002,-0.002 0.004,-0.004 0.006,-0.006 l 0.15235,-0.16797 z m 32.91406,0.87304 -0.0586,0.006 -0.2207,0.0195 0.1582,0.15039 0.002,0.002 c 0.0128,0.0177 0.0264,0.0357 0.0352,0.0488 0.11516,0.17284 0.22625,0.35059 0.33203,0.5332 0.10572,0.18249 0.20621,0.37217 0.30274,0.56445 0.0962,0.19175 0.18853,0.38917 0.27539,0.58985 0.0871,0.2012 0.16829,0.40702 0.24609,0.61718 0.0778,0.21015 0.15231,0.42417 0.2207,0.64258 0.13681,0.43699 0.25424,0.88902 0.35352,1.35742 0.0993,0.4684 0.18051,0.95238 0.24219,1.44922 0.0617,0.49685 0.10293,1.007 0.12695,1.5293 0.024,0.52227 0.0293,1.05682 0.0156,1.60156 -0.0136,0.54468 -0.0462,1.09989 -0.0977,1.66406 -0.0514,0.56419 -0.12012,1.13672 -0.20899,1.7168 -0.0889,0.58014 -0.19617,1.16878 -0.32226,1.76172 -0.12609,0.59295 -0.27052,1.19032 -0.4336,1.79297 -0.0971,0.35903 -0.21654,0.72397 -0.32812,1.08984 l -0.0391,0.12891 c -0.0588,0.19987 -0.1131,0.39858 -0.17774,0.5957 -0.19979,0.60922 -0.4161,1.22136 -0.65234,1.83399 -0.23624,0.61263 -0.49123,1.22693 -0.76367,1.83984 -0.27245,0.61295 -0.56273,1.22389 -0.8711,1.83398 -0.30835,0.61007 -0.63444,1.21808 -0.97851,1.82227 -0.32843,0.57522 -0.66907,1.14148 -1.02149,1.69531 -0.35243,0.55383 -0.7175,1.09495 -1.09179,1.625 -0.37429,0.53007 -0.75845,1.04898 -1.15235,1.55274 -0.39389,0.50374 -0.79759,0.99365 -1.20898,1.46875 -0.41138,0.47506 -0.83121,0.93503 -1.25781,1.3789 -0.42661,0.44388 -0.85919,0.87101 -1.29883,1.28125 -0.43968,0.41027 -0.88548,0.8036 -1.33594,1.17774 -0.4505,0.37417 -0.90612,0.7288 -1.36523,1.06445 l -0.51758,0.37695 0.5332,0.35938 c 0.44101,0.29674 0.882,0.57727 1.32422,0.84179 0.4422,0.26452 0.8841,0.51261 1.32617,0.74415 0.44206,0.23154 0.88362,0.44673 1.32422,0.64453 0.13523,0.0608 0.26569,0.10799 0.39258,0.16211 l 0.0371,0.0156 0.0371,-0.0137 c 0.17056,-0.0614 0.34062,-0.12423 0.50976,-0.18945 l 0.24024,-0.0937 -0.24024,-0.0937 c -0.67647,-0.26314 -1.35966,-0.56946 -2.04492,-0.91797 h -0.002 c -0.82577,-0.43272 -1.65269,-0.93634 -2.47852,-1.48633 0.70361,-0.52008 1.40031,-1.07874 2.08594,-1.68945 0.72345,-0.6446 1.43361,-1.33565 2.125,-2.07032 0.69151,-0.73468 1.36403,-1.512 2.01172,-2.32422 0.64773,-0.8122 1.26845,-1.65928 1.86133,-2.53515 0.5927,-0.87569 1.15583,-1.77682 1.68359,-2.70117 0.16275,-0.28564 0.32256,-0.574 0.47852,-0.86328 0.15579,-0.28933 0.30828,-0.58055 0.45703,-0.87305 0.14884,-0.2925 0.29399,-0.58566 0.43554,-0.88086 0.14129,-0.29464 0.27832,-0.59183 0.41211,-0.88867 v -0.002 c 0.1338,-0.29677 0.26454,-0.59603 0.39063,-0.89453 0.12639,-0.29912 0.24874,-0.59806 0.36719,-0.89843 0.11821,-0.30044 0.23368,-0.60118 0.34375,-0.90235 0.11035,-0.30102 0.21631,-0.603 0.31836,-0.90429 0.10181,-0.30148 0.19964,-0.60306 0.29296,-0.9043 0.0263,-0.0874 0.0526,-0.17435 0.0781,-0.26172 l 0.0371,-0.12891 c 0.0511,-0.16892 0.10201,-0.33716 0.15039,-0.50586 0.0849,-0.30045 0.16413,-0.60114 0.24023,-0.90039 0.076,-0.29917 0.14778,-0.59705 0.21485,-0.89453 0.067,-0.29755 0.12947,-0.59526 0.1875,-0.89062 0.0581,-0.29524 0.1131,-0.58828 0.16211,-0.88086 0.049,-0.29276 0.093,-0.58539 0.13281,-0.875 0.0397,-0.28941 0.075,-0.57554 0.10547,-0.86133 0.0306,-0.28589 0.0568,-0.56975 0.0781,-0.85156 0.0211,-0.28186 0.0371,-0.56253 0.0488,-0.83985 0.0119,-0.27729 0.0189,-0.5519 0.0215,-0.82422 0.002,-0.2724 -7.8e-4,-0.54162 -0.008,-0.80859 -0.007,-0.26698 -0.0169,-0.53185 -0.0332,-0.79297 -0.0163,-0.26103 -0.0388,-0.51868 -0.0644,-0.77344 -0.0256,-0.25474 -0.0549,-0.50585 -0.0899,-0.7539 -0.0349,-0.24794 -0.075,-0.49353 -0.11914,-0.73438 -0.0443,-0.24096 -0.093,-0.47747 -0.14648,-0.71093 -0.0535,-0.23363 -0.11118,-0.46372 -0.17383,-0.68946 -0.0626,-0.22559 -0.12954,-0.44671 -0.20117,-0.66406 -0.0715,-0.21737 -0.14805,-0.42989 -0.22852,-0.63867 -0.0805,-0.20863 -0.16461,-0.4136 -0.2539,-0.61328 -0.0796,-0.17648 -0.16357,-0.35034 -0.25,-0.51953 l -0.006,-0.0117 -0.01,-0.0117 c -0.31668,-0.33553 -0.64309,-0.66172 -0.97851,-0.97852 z m -33.88671,0.38086 c -0.0223,0.0344 -0.0465,0.0667 -0.0684,0.10157 -0.11897,0.18895 -0.23337,0.38235 -0.3418,0.58203 -0.10838,0.19959 -0.21257,0.40517 -0.31055,0.61523 -0.0979,0.21005 -0.18998,0.42476 -0.27734,0.64453 -0.0874,0.21985 -0.16923,0.44457 -0.24609,0.67383 -0.0768,0.22923 -0.14849,0.46287 -0.21485,0.70117 -0.0663,0.23827 -0.12784,0.48166 -0.18359,0.72852 -0.0558,0.24691 -0.10514,0.49702 -0.15039,0.75195 -0.0905,0.50999 -0.16064,1.03606 -0.20899,1.57617 -0.0483,0.54005 -0.076,1.09328 -0.082,1.66016 -0.006,0.56678 0.009,1.14807 0.0449,1.73828 0.036,0.59017 0.0919,1.18933 0.16993,1.79883 0.078,0.60952 0.179,1.22831 0.29882,1.85351 0.11983,0.62523 0.26045,1.25717 0.42188,1.89454 0.16141,0.63734 0.34209,1.27983 0.54492,1.92578 0.20282,0.64594 0.42787,1.29641 0.67188,1.94726 0.244,0.65089 0.50798,1.30288 0.79296,1.95508 0.28499,0.65219 0.59022,1.30314 0.91602,1.95313 0.32579,0.64996 0.67266,1.29925 1.03906,1.94335 0.32999,0.57797 0.6713,1.14465 1.02539,1.70118 0.35409,0.55652 0.71966,1.10208 1.09571,1.63476 0.37603,0.53266 0.76236,1.05418 1.1582,1.56055 0.39585,0.50639 0.80139,0.99701 1.21484,1.47461 0.41346,0.4776 0.8347,0.94027 1.26368,1.38672 0.42895,0.44644 0.86631,0.87822 1.30859,1.29101 0.44228,0.41277 0.89025,0.80687 1.34375,1.1836 0.45347,0.3767 0.91243,0.73602 1.375,1.07421 l 0.28711,0.20899 -0.29492,0.19922 c -0.37968,0.25531 -0.76058,0.49402 -1.14063,0.71679 -0.38001,0.22277 -0.76056,0.42952 -1.14062,0.625 -0.38002,0.19547 -0.75917,0.37942 -1.13868,0.55274 -0.35655,0.16284 -0.7126,0.31515 -1.06835,0.46289 -0.0461,-0.0168 -0.0927,-0.0337 -0.13868,-0.0508 0.64086,-0.25614 1.28417,-0.53789 1.93164,-0.86914 0.86992,-0.45591 1.74279,-0.97842 2.61133,-1.5625 l 0.11719,-0.0801 -0.11523,-0.084 c -0.73772,-0.53957 -1.46673,-1.1309 -2.18555,-1.77149 h -0.002 c -0.71905,-0.64033 -1.42363,-1.32818 -2.11133,-2.05859 -0.68748,-0.7306 -1.3558,-1.50251 -2,-2.31055 -0.64442,-0.80805 -1.26351,-1.64986 -1.85352,-2.52148 -0.58982,-0.87145 -1.14858,-1.7695 -1.67383,-2.68946 -0.56384,-0.99132 -1.08652,-2.00517 -1.56445,-3.0332 -0.47812,-1.02808 -0.91028,-2.06899 -1.29297,-3.11328 -0.38251,-1.04434 -0.7147,-2.08929 -0.99414,-3.12891 -0.2795,-1.03946 -0.5068,-2.07002 -0.67773,-3.08398 -0.17098,-1.01395 -0.2866,-2.00843 -0.34571,-2.97656 -0.0591,-0.96829 -0.0616,-1.90752 -0.008,-2.81055 0.0539,-0.90295 0.16463,-1.76832 0.33008,-2.58789 0.16528,-0.81886 0.3852,-1.59124 0.6582,-2.31055 v -0.002 c 0.239,-0.60538 0.51728,-1.17034 0.83008,-1.69336 0.12081,-0.13166 0.2552,-0.25002 0.37891,-0.37891 z m 34.37304,0.40235 c 0.12022,0.1219 0.2457,0.23881 0.36328,0.36328 0.0821,0.16134 0.16043,0.32591 0.23633,0.49414 0.0878,0.19643 0.17269,0.39611 0.25196,0.60156 0.0792,0.2056 0.15408,0.41658 0.2246,0.63086 0.0706,0.21425 0.13551,0.4317 0.19727,0.6543 0.0618,0.22274 0.11904,0.4509 0.17188,0.68164 0.0528,0.23057 0.10273,0.46495 0.14648,0.70312 0.0436,0.23807 0.0827,0.47935 0.11719,0.72461 0.0346,0.24538 0.0645,0.49392 0.0898,0.7461 0.0254,0.25218 0.0444,0.50706 0.0606,0.76562 0.0161,0.25864 0.0283,0.52056 0.0351,0.78516 0.007,0.26458 0.0102,0.53261 0.008,0.80273 -0.003,0.27003 -0.01,0.54327 -0.0215,0.81836 -0.0117,0.27512 -0.0279,0.55229 -0.0488,0.83203 -0.0211,0.27971 -0.0478,0.56185 -0.0781,0.84571 -0.0302,0.28376 -0.066,0.56998 -0.10547,0.85742 -0.0395,0.28765 -0.0822,0.57633 -0.13086,0.86718 -0.0487,0.29069 -0.1024,0.5816 -0.16016,0.875 v 0.002 c -0.0577,0.29353 -0.12085,0.58703 -0.1875,0.88281 -0.0667,0.2957 -0.13736,0.59317 -0.21289,0.89063 -0.0757,0.29752 -0.15582,0.59574 -0.24023,0.89453 -0.0604,0.21057 -0.12284,0.4199 -0.1875,0.63086 v 0.002 l -0.0391,0.12695 h 0.002 c -0.0132,0.0444 -0.0257,0.0883 -0.0391,0.13281 -0.0928,0.29962 -0.18973,0.59855 -0.29102,0.89844 -0.10151,0.29972 -0.20661,0.60091 -0.3164,0.90039 -0.10951,0.29963 -0.22418,0.59756 -0.3418,0.89649 -0.11786,0.29886 -0.23947,0.59883 -0.36524,0.89648 -0.12569,0.29757 -0.25527,0.5928 -0.38867,0.88867 -0.13337,0.29594 -0.27125,0.59102 -0.41211,0.88477 -0.14087,0.29378 -0.28546,0.5878 -0.43359,0.87891 -0.14804,0.29109 -0.29807,0.57923 -0.45313,0.86718 -0.15521,0.28791 -0.31459,0.5751 -0.47656,0.85938 -0.52525,0.91995 -1.084,1.81801 -1.67383,2.68945 -0.59,0.87162 -1.20909,1.71343 -1.85351,2.52148 -0.64437,0.80807 -1.31431,1.57997 -2.00195,2.31055 -0.68753,0.73056 -1.39244,1.42002 -2.11133,2.06055 -0.71901,0.64044 -1.44963,1.23212 -2.1875,1.77148 l -0.11524,0.084 0.11914,0.0781 c 0.87129,0.58621 1.74451,1.11113 2.61719,1.56836 h 0.002 c 0.61477,0.31272 1.22715,0.57924 1.83594,0.82422 -0.0814,0.0304 -0.1624,0.0622 -0.24414,0.0918 -0.11966,-0.0496 -0.23617,-0.0936 -0.34961,-0.14453 -0.43684,-0.19611 -0.87394,-0.40896 -1.3125,-0.63868 -0.43861,-0.22972 -0.87734,-0.47759 -1.3164,-0.74023 -0.43905,-0.26263 -0.87822,-0.5411 -1.31641,-0.83594 l -0.29688,-0.19922 0.28711,-0.20898 c 0.46257,-0.33817 0.92144,-0.69556 1.375,-1.07227 0.45358,-0.37672 0.90335,-0.77277 1.34571,-1.18554 0.44238,-0.4128 0.87759,-0.84265 1.30664,-1.28907 0.42907,-0.44643 0.85204,-0.9091 1.26562,-1.38671 0.41355,-0.47759 0.81888,-0.97017 1.21485,-1.47657 0.39596,-0.5064 0.78209,-1.02594 1.1582,-1.55859 0.37613,-0.53266 0.74154,-1.07821 1.0957,-1.63477 0.35416,-0.55656 0.69735,-1.12516 1.02735,-1.70312 0.34567,-0.60701 0.67253,-1.21699 0.98242,-1.83008 0.30987,-0.61309 0.60122,-1.22975 0.875,-1.8457 0.27379,-0.61595 0.53012,-1.23188 0.76758,-1.84766 0.23746,-0.6158 0.45734,-1.23127 0.6582,-1.84375 0.081,-0.24688 0.14368,-0.48829 0.2168,-0.72851 l 0.041,-0.12891 h -0.002 c 0.0991,-0.32147 0.20184,-0.64439 0.28906,-0.9668 0.16401,-0.60609 0.31063,-1.20807 0.4375,-1.80468 0.12687,-0.59662 0.23472,-1.18749 0.32422,-1.77149 0.0895,-0.58405 0.15915,-1.16216 0.21094,-1.73047 0.0518,-0.56834 0.0858,-1.12648 0.0996,-1.67578 0.0137,-0.54926 0.009,-1.08801 -0.0156,-1.61523 -0.0242,-0.52723 -0.0685,-1.0427 -0.13086,-1.54493 -0.0623,-0.50221 -0.14362,-0.99253 -0.24414,-1.46679 -0.10052,-0.47426 -0.22058,-0.93364 -0.35937,-1.37696 -0.0694,-0.22173 -0.14368,-0.43906 -0.22266,-0.65234 -0.079,-0.21327 -0.16133,-0.42217 -0.25,-0.62695 -0.0886,-0.20476 -0.18312,-0.40407 -0.28125,-0.59961 -0.0771,-0.15357 -0.15915,-0.30316 -0.24219,-0.45117 z m -17.37695,38.57812 -0.0391,0.0156 -0.13672,0.0586 c -0.35008,0.14902 -0.69696,0.28401 -1.04102,0.4043 -0.34408,0.12029 -0.68414,0.22663 -1.02148,0.31836 -0.33733,0.0917 -0.67248,0.16924 -1.00195,0.23242 -0.32954,0.0632 -0.65389,0.11171 -0.97461,0.14648 -0.32068,0.0348 -0.63609,0.0561 -0.94727,0.0625 h -0.002 c -0.31098,0.007 -0.61547,-0.002 -0.91602,-0.0234 -0.30051,-0.0218 -0.59571,-0.0577 -0.88476,-0.10742 -0.1241,-0.0214 -0.2495,-0.0543 -0.38086,-0.084 -0.005,-0.001 -0.0102,-0.003 -0.0156,-0.004 l -0.0566,0.18946 c 0.005,0.002 0.009,0.004 0.0137,0.006 0.001,3e-4 0.003,0.002 0.004,0.002 0.17026,0.0657 0.34196,0.12958 0.51367,0.1914 l 0.004,0.002 h 0.006 c 0.5101,0.12853 1.02359,0.24105 1.54101,0.33593 l 0.008,0.002 h 0.006 c 0.3804,0.0128 0.76845,0.003 1.16211,-0.0254 h 0.002 0.002 c 0.67432,-0.0733 1.36476,-0.20531 2.06641,-0.39649 0.68882,-0.18745 1.38717,-0.43453 2.09179,-0.73242 0.66857,0.2807 1.33194,0.51603 1.98633,0.69727 0.66729,0.18488 1.32365,0.31594 1.9668,0.39453 h 0.002 l 0.002,0.002 c 0.41846,0.0393 0.8303,0.0539 1.23438,0.0469 h 0.008 0.008 c 0.49815,-0.092 0.99302,-0.20106 1.48438,-0.32422 h 0.006 l 0.004,-0.002 c 0.15208,-0.055 0.30412,-0.11183 0.45507,-0.16992 l 0.0645,-0.0254 v -0.18945 l -0.11914,0.0234 c -0.006,10e-4 -0.0116,0.003 -0.0176,0.004 -0.14632,0.0289 -0.28809,0.0601 -0.42969,0.0801 -0.27827,0.0391 -0.56126,0.0664 -0.84961,0.0801 -0.28837,0.0137 -0.5811,0.0135 -0.87891,0.002 -0.29781,-0.0119 -0.60001,-0.0367 -0.90625,-0.0742 -0.30633,-0.0375 -0.61763,-0.0872 -0.93164,-0.15039 -0.31396,-0.0631 -0.63015,-0.13967 -0.95117,-0.22851 -0.32098,-0.0888 -0.64567,-0.19011 -0.97265,-0.30469 -0.32697,-0.11458 -0.65599,-0.24237 -0.98829,-0.38281 h -0.002 z m 0.002,0.2168 0.0977,0.041 c 0.33594,0.14198 0.66886,0.27068 1,0.38672 0.33113,0.11604 0.65899,0.21859 0.98437,0.3086 0.32532,0.09 0.64783,0.16832 0.9668,0.23242 0.31891,0.0641 0.63381,0.11423 0.94531,0.15234 0.31162,0.0381 0.62052,0.0621 0.92383,0.0742 0.28283,0.011 0.56084,0.009 0.83594,-0.002 -0.19128,0.0403 -0.38003,0.0894 -0.57227,0.125 -0.39326,0.007 -0.7951,-0.009 -1.20312,-0.0469 h -0.004 c -0.63146,-0.0774 -1.27649,-0.20857 -1.93359,-0.39062 -0.65834,-0.18233 -1.32746,-0.41613 -2.00195,-0.70117 l -0.0391,-0.0176 -0.0391,0.0176 c -0.71021,0.3022 -1.41322,0.54793 -2.10547,0.73632 -0.69221,0.18861 -1.37204,0.31853 -2.03515,0.39063 -0.38415,0.028 -0.76229,0.0358 -1.13282,0.0234 -0.19743,-0.0363 -0.39146,-0.0857 -0.58789,-0.12696 0.2441,0.0127 0.48977,0.0232 0.74024,0.0176 0.31702,-0.007 0.6384,-0.0271 0.96484,-0.0625 0.32639,-0.0354 0.65758,-0.0842 0.99219,-0.14844 0.33468,-0.0642 0.6717,-0.14339 1.01367,-0.23632 0.34196,-0.093 0.68862,-0.20044 1.03711,-0.32227 0.3485,-0.12184 0.69886,-0.25757 1.05273,-0.4082 z"
         id="path470" />
    </g>
  </g>
  <text
     xml:space="preserve"
     style="font-style:normal;font-variant:normal;font-weight:bold;font-stretch:normal;font-size:38.8056px;font-family:Arial;-inkscape-font-specification:'Arial Bold';text-align:center;writing-mode:lr-tb;text-anchor:middle;fill:#a30000;stroke:#000000;stroke-width:0;stroke-linecap:square;stroke-miterlimit:8.4;fill-opacity:1"
     x="161.62201"
     y="38.305714"
     id="text1"><tspan
       sodipodi:role="line"
       id="tspan1"
       style="font-style:normal;font-variant:normal;font-weight:bold;font-stretch:normal;font-family:Arial;-inkscape-font-specification:'Arial Bold';writing-mode:lr-tb;stroke-width:0;fill:#a30000;fill-opacity:1"
       x="161.62201"
       y="38.305714">VEGARON</tspan></text>
</svg>
